HIERARCHY
ROOT root
{
	OFFSET 0.000000 0.000000 0.000000
	CHANNELS 6 Xposition Yposition Zposition Zrotation Yrotation Xrotation
	JOINT lhip
	{
		OFFSET 0.058581 -0.082280 -0.017664
		CHANNELS 3 Zrotation Yrotation Xrotation
		JOINT lknee
		{
			OFFSET 0.043451 -0.386469 0.008037
			CHANNELS 3 Zrotation Yrotation Xrotation
			JOINT lankle
			{
				OFFSET -0.014790 -0.426874 -0.037428
				CHANNELS 3 Zrotation Yrotation Xrotation
				JOINT ltoe
				{
					OFFSET 0.041054 -0.060286 0.122042
					CHANNELS 3 Zrotation Yrotation Xrotation
					End Site
					{
						OFFSET 0.000000 0.000000 0.000000
					}
				}
			}
		}
	}
	JOINT rhip
	{
		OFFSET -0.060310 -0.090513 -0.013543
		CHANNELS 3 Zrotation Yrotation Xrotation
		JOINT rknee
		{
			OFFSET -0.043257 -0.383688 -0.004843
			CHANNELS 3 Zrotation Yrotation Xrotation
			JOINT rankle
			{
				OFFSET 0.019056 -0.420046 -0.034562
				CHANNELS 3 Zrotation Yrotation Xrotation
				JOINT rtoe
				{
					OFFSET -0.034840 -0.062106 0.130323
					CHANNELS 3 Zrotation Yrotation Xrotation
					End Site
					{
						OFFSET 0.000000 0.000000 0.000000
					}
				}
			}
		}
	}
	JOINT lowerback
	{
		OFFSET 0.004439 0.124404 -0.038385
		CHANNELS 3 Zrotation Yrotation Xrotation
		JOINT upperback
		{
			OFFSET 0.004488 0.137956 0.026820
			CHANNELS 3 Zrotation Yrotation Xrotation
			JOINT chest
			{
				OFFSET -0.002265 0.056032 0.002855
				CHANNELS 3 Zrotation Yrotation Xrotation
				JOINT lowerneck
				{
					OFFSET -0.013390 0.211636 -0.033468
					CHANNELS 3 Zrotation Yrotation Xrotation
					JOINT upperneck
					{
						OFFSET 0.010113 0.088937 0.050410
						CHANNELS 3 Zrotation Yrotation Xrotation
						End Site
						{
							OFFSET 0.000000 0.000000 0.000000
						}
					}
				}
				JOINT lclavicle
				{
					OFFSET 0.071702 0.114000 -0.018898
					CHANNELS 3 Zrotation Yrotation Xrotation
					JOINT lshoulder
					{
						OFFSET 0.122921 0.045205 -0.019046
						CHANNELS 3 Zrotation Yrotation Xrotation
						JOINT lelbow
						{
							OFFSET 0.255332 -0.015649 -0.022946
							CHANNELS 3 Zrotation Yrotation Xrotation
							JOINT lwrist
							{
								OFFSET 0.265709 0.012698 -0.007375
								CHANNELS 3 Zrotation Yrotation Xrotation
								End Site
								{
									OFFSET 0.000000 0.000000 0.000000
								}
							}
						}
					}
				}
				JOINT rclavicle
				{
					OFFSET -0.082954 0.112472 -0.023707
					CHANNELS 3 Zrotation Yrotation Xrotation
					JOINT rshoulder
					{
						OFFSET -0.113228 0.046853 -0.008472
						CHANNELS 3 Zrotation Yrotation Xrotation
						JOINT relbow
						{
							OFFSET -0.260127 -0.014369 -0.031269
							CHANNELS 3 Zrotation Yrotation Xrotation
							JOINT rwrist
							{
								OFFSET -0.269108 0.006794 -0.006027
								CHANNELS 3 Zrotation Yrotation Xrotation
								End Site
								{
									OFFSET 0.000000 0.000000 0.000000
								}
							}
						}
					}
				}
			}
		}
	}
}
MOTION
Frames: 8
Frame Time: 0.033333
2.341221 0.688435 0.981638 -81.096260 0.104328 85.137034 -2.004833 -1.969641 -2.037948 -0.754462 -8.715028 10.002879 3.305790 9.412202 -14.516575 0.000000 -0.000000 0.000000 -1.567099 -3.600554 -3.408796 -2.143363 -4.557849 16.115960 3.132046 -9.157868 -18.278047 0.000000 -0.000000 0.000000 -1.554608 3.929668 9.633610 -2.573420 -0.549928 -0.400648 -1.763587 0.271414 3.351245 7.921020 13.472584 2.375644 3.800033 8.108391 6.288715 -22.571700 -4.326161 -1.601766 -52.692363 -10.359821 14.612475 -5.672692 -22.053090 19.506928 -5.990191 -2.350376 1.962487 17.056617 2.344939 0.787223 64.530226 0.272088 21.298220 7.138920 36.151616 14.313193 13.330111 1.384028 -22.489736 
2.342882 0.689511 0.981204 -81.966305 0.024350 85.517479 -1.947461 -2.222784 -2.497493 -0.834497 -8.096025 9.948381 3.122110 9.923736 -13.952956 0.000000 -0.000000 0.000000 -1.494953 -2.692678 -4.174446 -2.402632 -4.801571 16.306998 3.148981 -9.190797 -17.700604 0.000000 -0.000000 0.000000 -1.834847 4.192724 9.798962 -2.531419 -0.334065 -1.062166 -1.609274 0.260500 3.591239 7.710334 13.510524 2.811520 3.875189 7.915568 5.971609 -22.536053 -3.952200 -1.489067 -52.763195 -10.230800 14.508449 -6.180169 -22.203724 18.619252 -6.442597 -1.666084 1.762605 17.110175 2.376473 1.033464 64.451728 0.514977 21.451663 6.869674 36.265100 13.968722 13.255853 0.848849 -22.517579 
2.343305 0.690324 0.980580 -82.446503 -0.049569 85.669436 -1.879152 -2.252753 -2.710110 -0.913537 -7.695367 9.813271 2.786488 9.699512 -13.628449 0.000000 -0.000000 0.000000 -1.565731 -2.357066 -4.543594 -2.409527 -4.822685 16.515392 3.189425 -9.050117 -17.508332 0.000000 -0.000000 0.000000 -2.015146 4.187045 9.818533 -2.511090 -0.219534 -1.302313 -1.556380 0.300916 3.646564 7.767636 13.270559 3.109536 3.860244 7.594320 6.170796 -22.557009 -3.620687 -1.332278 -52.825617 -10.089459 14.427380 -6.595131 -22.267061 18.403606 -7.067109 -1.288959 0.982406 17.130920 2.245924 1.178169 64.583088 0.567201 21.527837 6.580952 36.416728 13.749836 12.597718 0.651018 -22.219875 
2.342709 0.690403 0.980708 -82.928525 -0.035247 85.509743 -1.880517 -2.076690 -2.373351 -0.930081 -7.449383 10.035214 3.195083 10.894688 -13.896880 0.000000 -0.000000 0.000000 -1.619591 -2.316693 -4.329808 -2.301850 -4.573958 16.389775 3.366372 -8.842242 -17.208996 0.000000 -0.000000 0.000000 -1.995200 4.135918 9.825414 -2.539651 -0.177219 -1.181466 -1.637576 0.323275 3.619695 7.877533 13.080629 3.274812 3.761173 7.400653 6.482482 -22.794639 -3.278296 -1.247035 -52.564777 -9.680171 14.429765 -6.834174 -22.324411 18.999347 -6.163430 -1.483815 2.120302 17.429138 2.180290 1.334303 64.335334 0.673004 21.603188 7.026453 36.403595 13.868258 11.488571 0.679923 -22.111438 
2.342972 0.690218 0.980576 -83.287638 -0.120624 85.448050 -2.022593 -2.010761 -2.213771 -0.873412 -7.499047 9.840009 2.975058 10.934363 -13.813976 0.000000 -0.000000 0.000000 -1.709103 -2.158076 -4.416002 -2.301484 -4.345967 16.545660 3.504448 -8.859521 -17.436509 0.000000 -0.000000 0.000000 -2.047882 4.103518 9.958002 -2.565280 -0.044103 -1.268776 -1.673510 0.306757 3.729772 7.873706 12.902821 3.177494 3.609888 7.235779 6.773422 -22.938396 -3.064674 -1.365616 -52.553192 -9.532179 14.518413 -6.804917 -22.152771 19.411081 -5.207790 -1.518619 3.066141 17.500752 2.156630 1.105807 64.159425 0.662899 21.789848 7.498940 36.281459 14.153267 10.951051 0.634354 -22.073174 
2.342950 0.689807 0.980408 -83.466323 -0.108103 85.459870 -2.012312 -1.949133 -2.253209 -0.873892 -7.354376 9.944755 3.090266 11.059721 -13.937070 0.000000 -0.000000 0.000000 -1.739417 -2.235567 -4.521241 -2.211977 -4.168500 16.617788 3.477920 -8.805068 -17.284713 0.000000 -0.000000 0.000000 -2.003880 4.074847 9.871902 -2.549837 -0.039744 -1.218577 -1.752417 0.305584 3.774510 7.884963 12.504909 3.411602 3.609642 6.981660 6.931606 -23.081649 -2.867970 -1.361932 -52.493663 -9.577415 14.458743 -6.768785 -21.962653 19.131662 -5.620841 -1.315632 2.804294 17.444566 1.970152 1.066423 64.052575 0.723564 21.865586 7.899786 36.398718 14.610952 11.512950 0.692778 -22.276158 
2.342900 0.689354 0.980269 -83.865825 -0.217453 85.469263 -2.095318 -1.806295 -2.185142 -0.912961 -7.080549 9.827091 3.311288 11.245149 -13.961067 0.000000 -0.000000 0.000000 -1.901723 -2.092270 -4.775408 -2.189837 -4.074770 17.020716 3.509023 -8.726923 -17.389039 0.000000 -0.000000 0.000000 -2.003057 4.024065 9.798944 -2.632694 0.148426 -1.221097 -1.819079 0.349674 3.851351 7.991915 12.125703 3.451479 3.354865 6.795776 7.160120 -23.272136 -2.663175 -1.480863 -52.415322 -9.650412 14.396586 -6.599316 -21.743269 18.670549 -6.137046 -1.247888 2.543055 17.411474 1.877706 0.995879 63.944408 0.759547 22.124619 8.156498 36.545340 14.941846 11.963425 0.741667 -22.463032 
2.342589 0.688295 0.980312 -83.787489 -0.170038 85.531723 -2.117718 -1.862302 -2.379269 -0.941091 -7.010831 10.112413 3.231687 11.055636 -13.966807 0.000000 -0.000000 0.000000 -2.038098 -2.302916 -4.884060 -2.026862 -4.058755 17.186875 3.472960 -8.552641 -17.371086 0.000000 -0.000000 0.000000 -1.770861 4.005190 9.494709 -2.650285 0.009195 -0.978046 -1.916897 0.342788 3.783785 7.890931 11.835249 3.604187 3.345447 6.739358 7.124675 -23.369043 -2.705343 -1.421361 -52.417480 -9.636055 14.422627 -6.303718 -21.759236 18.359235 -6.621561 -1.265605 2.450671 17.387572 1.822224 1.048583 63.617742 0.648427 22.095621 8.801656 36.777084 15.794171 13.427108 0.888950 -22.900070 
